<mxfile host="app.diagrams.net" modified="2022-03-25T00:27:35.766Z" agent="5.0 (iPhone; CPU iPhone OS 15_4 like Mac OS X) AppleWebKit/605.1.15 (KHTML, like Gecko) Version/15.4 Mobile/15E148 Safari/604.1" etag="0CdQ27DnqAJEFVtElEji" version="17.2.2" type="github">
  <diagram id="ytKmb3bJ529Ogm8o_czL" name="Page-1">
    <mxGraphModel dx="525" dy="1322" grid="0" gridSize="10" guides="1" tooltips="1" connect="1" arrows="1" fold="1" page="0" pageScale="1" pageWidth="827" pageHeight="1169" math="0" shadow="0">
      <root>
        <mxCell id="0" />
        <mxCell id="1" parent="0" />
        <mxCell id="Ks0Nw8g2HcwxXvmIiMkX-1" value="11" style="ellipse;whiteSpace=wrap;html=1;hachureGap=4;" parent="1" vertex="1">
          <mxGeometry x="168" y="82" width="32" height="31" as="geometry" />
        </mxCell>
        <mxCell id="Ks0Nw8g2HcwxXvmIiMkX-2" value="2" style="ellipse;whiteSpace=wrap;html=1;hachureGap=4;" parent="1" vertex="1">
          <mxGeometry x="136" y="138" width="32" height="31" as="geometry" />
        </mxCell>
        <mxCell id="Ks0Nw8g2HcwxXvmIiMkX-3" value="14" style="ellipse;whiteSpace=wrap;html=1;hachureGap=4;" parent="1" vertex="1">
          <mxGeometry x="200" y="138" width="32" height="31" as="geometry" />
        </mxCell>
        <mxCell id="Ks0Nw8g2HcwxXvmIiMkX-4" value="25" style="ellipse;whiteSpace=wrap;html=1;hachureGap=4;" parent="1" vertex="1">
          <mxGeometry x="232" y="195" width="32" height="31" as="geometry" />
        </mxCell>
        <mxCell id="Ks0Nw8g2HcwxXvmIiMkX-5" value="13" style="ellipse;whiteSpace=wrap;html=1;hachureGap=4;" parent="1" vertex="1">
          <mxGeometry x="168" y="195" width="32" height="31" as="geometry" />
        </mxCell>
        <mxCell id="Ks0Nw8g2HcwxXvmIiMkX-6" value="15" style="ellipse;whiteSpace=wrap;html=1;hachureGap=4;" parent="1" vertex="1">
          <mxGeometry x="207" y="246" width="32" height="31" as="geometry" />
        </mxCell>
        <mxCell id="Ks0Nw8g2HcwxXvmIiMkX-7" value="16" style="ellipse;whiteSpace=wrap;html=1;hachureGap=4;" parent="1" vertex="1">
          <mxGeometry x="175" y="303" width="32" height="31" as="geometry" />
        </mxCell>
        <mxCell id="lmFdL-dfOB_k1-a9w4Ib-1" value="11,15" style="ellipse;whiteSpace=wrap;html=1;hachureGap=4;" vertex="1" parent="1">
          <mxGeometry x="398" y="82" width="32" height="31" as="geometry" />
        </mxCell>
        <mxCell id="lmFdL-dfOB_k1-a9w4Ib-2" value="2" style="ellipse;whiteSpace=wrap;html=1;hachureGap=4;" vertex="1" parent="1">
          <mxGeometry x="363" y="130" width="32" height="31" as="geometry" />
        </mxCell>
        <mxCell id="lmFdL-dfOB_k1-a9w4Ib-3" value="16,25" style="ellipse;whiteSpace=wrap;html=1;hachureGap=4;" vertex="1" parent="1">
          <mxGeometry x="444" y="130" width="32" height="31" as="geometry" />
        </mxCell>
        <mxCell id="lmFdL-dfOB_k1-a9w4Ib-4" value="13,14" style="ellipse;whiteSpace=wrap;html=1;hachureGap=4;" vertex="1" parent="1">
          <mxGeometry x="398" y="130" width="32" height="31" as="geometry" />
        </mxCell>
        <mxCell id="lmFdL-dfOB_k1-a9w4Ib-5" value="15" style="ellipse;whiteSpace=wrap;html=1;hachureGap=4;" vertex="1" parent="1">
          <mxGeometry x="439" y="230" width="32" height="31" as="geometry" />
        </mxCell>
        <mxCell id="lmFdL-dfOB_k1-a9w4Ib-6" value="11, 2, 14, 25, 15, 13, 16" style="text;whiteSpace=wrap;html=1;" vertex="1" parent="1">
          <mxGeometry x="358" y="-17" width="146" height="41" as="geometry" />
        </mxCell>
        <mxCell id="lmFdL-dfOB_k1-a9w4Ib-7" value="11" style="ellipse;whiteSpace=wrap;html=1;hachureGap=4;" vertex="1" parent="1">
          <mxGeometry x="390" y="275" width="32" height="31" as="geometry" />
        </mxCell>
        <mxCell id="lmFdL-dfOB_k1-a9w4Ib-9" value="2" style="ellipse;whiteSpace=wrap;html=1;hachureGap=4;" vertex="1" parent="1">
          <mxGeometry x="363" y="330" width="32" height="31" as="geometry" />
        </mxCell>
        <mxCell id="lmFdL-dfOB_k1-a9w4Ib-10" value="14" style="ellipse;whiteSpace=wrap;html=1;hachureGap=4;" vertex="1" parent="1">
          <mxGeometry x="415" y="334" width="32" height="31" as="geometry" />
        </mxCell>
        <mxCell id="lmFdL-dfOB_k1-a9w4Ib-11" value="13" style="ellipse;whiteSpace=wrap;html=1;hachureGap=4;" vertex="1" parent="1">
          <mxGeometry x="402" y="402" width="32" height="31" as="geometry" />
        </mxCell>
        <mxCell id="lmFdL-dfOB_k1-a9w4Ib-12" value="25" style="ellipse;whiteSpace=wrap;html=1;hachureGap=4;" vertex="1" parent="1">
          <mxGeometry x="481" y="277" width="32" height="31" as="geometry" />
        </mxCell>
        <mxCell id="lmFdL-dfOB_k1-a9w4Ib-13" value="16" style="ellipse;whiteSpace=wrap;html=1;hachureGap=4;" vertex="1" parent="1">
          <mxGeometry x="462" y="334" width="32" height="31" as="geometry" />
        </mxCell>
        <mxCell id="lmFdL-dfOB_k1-a9w4Ib-15" value="" style="edgeStyle=none;orthogonalLoop=1;jettySize=auto;html=1;rounded=0;endArrow=open;sourcePerimeterSpacing=8;targetPerimeterSpacing=8;curved=1;shape=link;width=-3;exitX=0.5;exitY=0;exitDx=0;exitDy=0;entryX=0.5;entryY=1;entryDx=0;entryDy=0;" edge="1" parent="1" source="lmFdL-dfOB_k1-a9w4Ib-11" target="lmFdL-dfOB_k1-a9w4Ib-10">
          <mxGeometry width="120" relative="1" as="geometry">
            <mxPoint x="409.5" y="392.72" as="sourcePoint" />
            <mxPoint x="447.0023657317346" y="373.99903212649883" as="targetPoint" />
            <Array as="points" />
          </mxGeometry>
        </mxCell>
        <mxCell id="lmFdL-dfOB_k1-a9w4Ib-16" value="" style="edgeStyle=none;orthogonalLoop=1;jettySize=auto;html=1;rounded=0;endArrow=open;sourcePerimeterSpacing=8;targetPerimeterSpacing=8;curved=1;shape=link;width=2.549019607843139;entryX=0;entryY=1;entryDx=0;entryDy=0;exitX=1;exitY=0;exitDx=0;exitDy=0;" edge="1" parent="1" source="lmFdL-dfOB_k1-a9w4Ib-7" target="lmFdL-dfOB_k1-a9w4Ib-5">
          <mxGeometry width="120" relative="1" as="geometry">
            <mxPoint x="439" y="300" as="sourcePoint" />
            <mxPoint x="428" y="243" as="targetPoint" />
            <Array as="points" />
          </mxGeometry>
        </mxCell>
        <mxCell id="lmFdL-dfOB_k1-a9w4Ib-17" value="" style="edgeStyle=none;orthogonalLoop=1;jettySize=auto;html=1;rounded=0;endArrow=open;sourcePerimeterSpacing=8;targetPerimeterSpacing=8;curved=1;shape=link;width=-3;entryX=0.5;entryY=1;entryDx=0;entryDy=0;exitX=0.5;exitY=0;exitDx=0;exitDy=0;" edge="1" parent="1" source="lmFdL-dfOB_k1-a9w4Ib-13" target="lmFdL-dfOB_k1-a9w4Ib-12">
          <mxGeometry width="120" relative="1" as="geometry">
            <mxPoint x="487" y="326" as="sourcePoint" />
            <mxPoint x="454" y="298" as="targetPoint" />
            <Array as="points" />
          </mxGeometry>
        </mxCell>
        <mxCell id="lmFdL-dfOB_k1-a9w4Ib-18" value="" style="edgeStyle=none;orthogonalLoop=1;jettySize=auto;html=1;rounded=0;endArrow=open;sourcePerimeterSpacing=8;targetPerimeterSpacing=8;curved=1;shape=link;width=0.37037037037037024;exitX=0.5;exitY=0;exitDx=0;exitDy=0;entryX=0;entryY=1;entryDx=0;entryDy=0;" edge="1" parent="1" source="lmFdL-dfOB_k1-a9w4Ib-9" target="lmFdL-dfOB_k1-a9w4Ib-7">
          <mxGeometry width="120" relative="1" as="geometry">
            <mxPoint x="365" y="433" as="sourcePoint" />
            <mxPoint x="400" y="309" as="targetPoint" />
            <Array as="points" />
          </mxGeometry>
        </mxCell>
        <mxCell id="lmFdL-dfOB_k1-a9w4Ib-19" value="" style="edgeStyle=none;orthogonalLoop=1;jettySize=auto;html=1;rounded=0;endArrow=open;sourcePerimeterSpacing=8;targetPerimeterSpacing=8;curved=1;shape=link;width=0.37037037037037024;exitX=0.344;exitY=0.065;exitDx=0;exitDy=0;entryX=1;entryY=1;entryDx=0;entryDy=0;exitPerimeter=0;" edge="1" parent="1" source="lmFdL-dfOB_k1-a9w4Ib-12" target="lmFdL-dfOB_k1-a9w4Ib-5">
          <mxGeometry width="120" relative="1" as="geometry">
            <mxPoint x="508" y="249" as="sourcePoint" />
            <mxPoint x="523.7469535151508" y="220.518608016415" as="targetPoint" />
            <Array as="points" />
          </mxGeometry>
        </mxCell>
        <mxCell id="lmFdL-dfOB_k1-a9w4Ib-20" value="" style="edgeStyle=none;orthogonalLoop=1;jettySize=auto;html=1;rounded=0;endArrow=open;sourcePerimeterSpacing=8;targetPerimeterSpacing=8;curved=1;shape=link;width=0.37037037037037024;exitX=0.5;exitY=0;exitDx=0;exitDy=0;entryX=0.719;entryY=0.968;entryDx=0;entryDy=0;entryPerimeter=0;" edge="1" parent="1" source="lmFdL-dfOB_k1-a9w4Ib-10" target="lmFdL-dfOB_k1-a9w4Ib-7">
          <mxGeometry width="120" relative="1" as="geometry">
            <mxPoint x="451" y="309" as="sourcePoint" />
            <mxPoint x="466.7469535151508" y="280.518608016415" as="targetPoint" />
            <Array as="points" />
          </mxGeometry>
        </mxCell>
        <mxCell id="lmFdL-dfOB_k1-a9w4Ib-21" value="" style="edgeStyle=none;orthogonalLoop=1;jettySize=auto;html=1;rounded=0;endArrow=open;sourcePerimeterSpacing=8;targetPerimeterSpacing=8;curved=1;shape=link;width=0.37037037037037024;exitX=0.719;exitY=0.065;exitDx=0;exitDy=0;exitPerimeter=0;entryX=0.219;entryY=0.935;entryDx=0;entryDy=0;entryPerimeter=0;" edge="1" parent="1" source="lmFdL-dfOB_k1-a9w4Ib-2" target="lmFdL-dfOB_k1-a9w4Ib-1">
          <mxGeometry width="120" relative="1" as="geometry">
            <mxPoint x="391" y="123" as="sourcePoint" />
            <mxPoint x="394" y="110" as="targetPoint" />
            <Array as="points" />
          </mxGeometry>
        </mxCell>
        <mxCell id="lmFdL-dfOB_k1-a9w4Ib-22" value="" style="edgeStyle=none;orthogonalLoop=1;jettySize=auto;html=1;rounded=0;endArrow=open;sourcePerimeterSpacing=8;targetPerimeterSpacing=8;curved=1;shape=link;width=0.37037037037037024;exitX=0.5;exitY=0;exitDx=0;exitDy=0;entryX=0.5;entryY=1;entryDx=0;entryDy=0;" edge="1" parent="1" source="lmFdL-dfOB_k1-a9w4Ib-4" target="lmFdL-dfOB_k1-a9w4Ib-1">
          <mxGeometry width="120" relative="1" as="geometry">
            <mxPoint x="419" y="122" as="sourcePoint" />
            <mxPoint x="434.7469535151508" y="93.51860801641499" as="targetPoint" />
            <Array as="points" />
          </mxGeometry>
        </mxCell>
        <mxCell id="lmFdL-dfOB_k1-a9w4Ib-23" value="" style="edgeStyle=none;orthogonalLoop=1;jettySize=auto;html=1;rounded=0;endArrow=open;sourcePerimeterSpacing=8;targetPerimeterSpacing=8;curved=1;shape=link;width=0.37037037037037024;entryX=0.781;entryY=0.903;entryDx=0;entryDy=0;entryPerimeter=0;exitX=0.25;exitY=0.097;exitDx=0;exitDy=0;exitPerimeter=0;" edge="1" parent="1" source="lmFdL-dfOB_k1-a9w4Ib-3" target="lmFdL-dfOB_k1-a9w4Ib-1">
          <mxGeometry width="120" relative="1" as="geometry">
            <mxPoint x="450" y="131" as="sourcePoint" />
            <mxPoint x="443.7469535151508" y="91.51860801641499" as="targetPoint" />
            <Array as="points" />
          </mxGeometry>
        </mxCell>
        <mxCell id="lmFdL-dfOB_k1-a9w4Ib-24" value="" style="edgeStyle=none;orthogonalLoop=1;jettySize=auto;html=1;rounded=0;endArrow=open;sourcePerimeterSpacing=8;targetPerimeterSpacing=8;curved=1;shape=link;width=0.37037037037037024;exitX=0.75;exitY=0.065;exitDx=0;exitDy=0;exitPerimeter=0;entryX=0.313;entryY=0.935;entryDx=0;entryDy=0;entryPerimeter=0;" edge="1" parent="1" source="Ks0Nw8g2HcwxXvmIiMkX-2" target="Ks0Nw8g2HcwxXvmIiMkX-1">
          <mxGeometry width="120" relative="1" as="geometry">
            <mxPoint x="174" y="123" as="sourcePoint" />
            <mxPoint x="189.74695351515078" y="94.51860801641499" as="targetPoint" />
            <Array as="points" />
          </mxGeometry>
        </mxCell>
        <mxCell id="lmFdL-dfOB_k1-a9w4Ib-25" value="" style="edgeStyle=none;orthogonalLoop=1;jettySize=auto;html=1;rounded=0;endArrow=open;sourcePerimeterSpacing=8;targetPerimeterSpacing=8;curved=1;shape=link;width=0.37037037037037024;entryX=0.719;entryY=0.935;entryDx=0;entryDy=0;entryPerimeter=0;" edge="1" parent="1" target="Ks0Nw8g2HcwxXvmIiMkX-1">
          <mxGeometry width="120" relative="1" as="geometry">
            <mxPoint x="209" y="139" as="sourcePoint" />
            <mxPoint x="219.74695351515078" y="97.51860801641499" as="targetPoint" />
            <Array as="points" />
          </mxGeometry>
        </mxCell>
        <mxCell id="lmFdL-dfOB_k1-a9w4Ib-26" value="" style="edgeStyle=none;orthogonalLoop=1;jettySize=auto;html=1;rounded=0;endArrow=open;sourcePerimeterSpacing=8;targetPerimeterSpacing=8;curved=1;shape=link;width=0.37037037037037024;entryX=0.375;entryY=1;entryDx=0;entryDy=0;entryPerimeter=0;" edge="1" parent="1" target="Ks0Nw8g2HcwxXvmIiMkX-3">
          <mxGeometry width="120" relative="1" as="geometry">
            <mxPoint x="194" y="198" as="sourcePoint" />
            <mxPoint x="215.74695351515078" y="153.518608016415" as="targetPoint" />
            <Array as="points" />
          </mxGeometry>
        </mxCell>
        <mxCell id="lmFdL-dfOB_k1-a9w4Ib-27" value="" style="edgeStyle=none;orthogonalLoop=1;jettySize=auto;html=1;rounded=0;endArrow=open;sourcePerimeterSpacing=8;targetPerimeterSpacing=8;curved=1;shape=link;width=0.37037037037037024;entryX=0.656;entryY=0.968;entryDx=0;entryDy=0;entryPerimeter=0;exitX=0.344;exitY=0.065;exitDx=0;exitDy=0;exitPerimeter=0;" edge="1" parent="1" source="Ks0Nw8g2HcwxXvmIiMkX-4" target="Ks0Nw8g2HcwxXvmIiMkX-3">
          <mxGeometry width="120" relative="1" as="geometry">
            <mxPoint x="241" y="195" as="sourcePoint" />
            <mxPoint x="223" y="170" as="targetPoint" />
            <Array as="points" />
          </mxGeometry>
        </mxCell>
        <mxCell id="lmFdL-dfOB_k1-a9w4Ib-28" value="" style="edgeStyle=none;orthogonalLoop=1;jettySize=auto;html=1;rounded=0;endArrow=open;sourcePerimeterSpacing=8;targetPerimeterSpacing=8;curved=1;shape=link;width=0.37037037037037024;exitX=0.625;exitY=0.032;exitDx=0;exitDy=0;entryX=0.281;entryY=0.968;entryDx=0;entryDy=0;exitPerimeter=0;entryPerimeter=0;" edge="1" parent="1" source="Ks0Nw8g2HcwxXvmIiMkX-6" target="Ks0Nw8g2HcwxXvmIiMkX-4">
          <mxGeometry width="120" relative="1" as="geometry">
            <mxPoint x="218" y="236" as="sourcePoint" />
            <mxPoint x="233.74695351515078" y="207.518608016415" as="targetPoint" />
            <Array as="points" />
          </mxGeometry>
        </mxCell>
        <mxCell id="lmFdL-dfOB_k1-a9w4Ib-29" value="" style="edgeStyle=none;orthogonalLoop=1;jettySize=auto;html=1;rounded=0;endArrow=open;sourcePerimeterSpacing=8;targetPerimeterSpacing=8;curved=1;shape=link;width=0.37037037037037024;exitX=0.719;exitY=0.032;exitDx=0;exitDy=0;entryX=0.281;entryY=0.935;entryDx=0;entryDy=0;exitPerimeter=0;entryPerimeter=0;" edge="1" parent="1" source="Ks0Nw8g2HcwxXvmIiMkX-7" target="Ks0Nw8g2HcwxXvmIiMkX-6">
          <mxGeometry width="120" relative="1" as="geometry">
            <mxPoint x="205" y="294" as="sourcePoint" />
            <mxPoint x="220.74695351515078" y="265.518608016415" as="targetPoint" />
            <Array as="points" />
          </mxGeometry>
        </mxCell>
        <mxCell id="lmFdL-dfOB_k1-a9w4Ib-30" value="BST" style="text;strokeColor=none;fillColor=none;html=1;align=center;verticalAlign=middle;whiteSpace=wrap;rounded=0;hachureGap=4;" vertex="1" parent="1">
          <mxGeometry x="150" y="34" width="60" height="30" as="geometry" />
        </mxCell>
        <mxCell id="lmFdL-dfOB_k1-a9w4Ib-31" value="2-3 tree" style="text;strokeColor=none;fillColor=none;html=1;align=center;verticalAlign=middle;whiteSpace=wrap;rounded=0;hachureGap=4;" vertex="1" parent="1">
          <mxGeometry x="384" y="30" width="60" height="30" as="geometry" />
        </mxCell>
        <mxCell id="lmFdL-dfOB_k1-a9w4Ib-32" value="LLRBT" style="text;strokeColor=none;fillColor=none;html=1;align=center;verticalAlign=middle;whiteSpace=wrap;rounded=0;hachureGap=4;" vertex="1" parent="1">
          <mxGeometry x="398" y="200" width="60" height="30" as="geometry" />
        </mxCell>
      </root>
    </mxGraphModel>
  </diagram>
</mxfile>
